HIERARCHY
ROOT Hips
{
  OFFSET 0 0 0
  CHANNELS 6 Xposition Yposition Zposition Zrotation Yrotation Xrotation
  JOINT LeftThigh
  {
    OFFSET 8.409438 0 -5.917753
    CHANNELS 3 Zrotation Yrotation Xrotation
    JOINT LeftLeg
    {
      OFFSET 0 0 -42.358652
      CHANNELS 3 Zrotation Yrotation Xrotation
      JOINT LeftFoot
      {
        OFFSET 0 0 -39.357303
        CHANNELS 3 Zrotation Yrotation Xrotation
      }
    }
  }
  JOINT RightThigh
  {
    OFFSET -8.409438 0 -5.917753
    CHANNELS 3 Zrotation Yrotation Xrotation
    JOINT RightLeg
    {
      OFFSET 0 0 -42.358652
      CHANNELS 3 Zrotation Yrotation Xrotation
      JOINT RightFoot
      {
        OFFSET 0 0 -39.357303
        CHANNELS 3 Zrotation Yrotation Xrotation
      }
    }
  }
  JOINT SpineLow
  {
    OFFSET 0 0 4.719101
    CHANNELS 3 Zrotation Yrotation Xrotation
    JOINT SpineMid
    {
      OFFSET 0 0 12.899191
      CHANNELS 3 Zrotation Yrotation Xrotation
      JOINT Chest
      {
        OFFSET 0 0 12.899191
        CHANNELS 3 Zrotation Yrotation Xrotation
        JOINT LeftShoulder
        {
          OFFSET 7.550562 1.41573 9.438202
          CHANNELS 3 Zrotation Yrotation Xrotation
          JOINT LeftArm
          {
            OFFSET 9.155056 0 4.247191
            CHANNELS 3 Zrotation Yrotation Xrotation
            JOINT LeftForearm
            {
              OFFSET 0 0 25.771955
              CHANNELS 3 Zrotation Yrotation Xrotation
              JOINT LeftHand
              {
                OFFSET 0 0 25.197169
                CHANNELS 3 Zrotation Yrotation Xrotation
              }
            }
          }
        }
        JOINT RightShoulder
        {
          OFFSET -7.550562 1.41573 9.438202
          CHANNELS 3 Zrotation Yrotation Xrotation
          JOINT RightArm
          {
            OFFSET -9.155056 0 4.247191
            CHANNELS 3 Zrotation Yrotation Xrotation
            JOINT RightForearm
            {
              OFFSET 0 0 -25.771955
              CHANNELS 3 Zrotation Yrotation Xrotation
              JOINT RightHand
              {
                OFFSET 0 0 -25.197169
                CHANNELS 3 Zrotation Yrotation Xrotation
              }
            }
          }
        }
        JOINT Neck
        {
          OFFSET 0 0 15.101124
          CHANNELS 3 Zrotation Yrotation Xrotation
          JOINT Head
          {
            OFFSET 0 0 11.325843
            CHANNELS 3 Zrotation Yrotation Xrotation
            End Site
            {
              OFFSET 0 0 14.157303
            }
          }
        }
      }
    }
  }
}
MOTION
Frames: 5
Frame Time: 0.0
0.0  93.25843  0.0  0.534889  32.31847  -82.130443  4.886561  -14.516089  14.464616  2.563876  -0.581596  6.736664  6.364417  1.595551  1.886362  -26.117169  -14.609107  -44.507639  -1.460943  18.184596  31.807338  3.328032  1.234795  3.243433  -1.166682  -0.24637  -0.743405  -3.1812  -0.709028  -2.019667  -3.1812  -0.709028  -2.019666  -19.075873  20.666688  6.107427  103.45692  42.207753  -161.828108  -22.94417  -18.534399  75.680955  -0.811957  -1.585546  114.65671  3.415257  -10.217572  15.411505  69.770365  60.814421  9.531204  -53.718481  -5.843363  -73.948592  103.738106  -19.931768  60.192183  -10.397547  0.767624  -0.228504  -7.797758  0.579805  -0.158367  
0.0  93.25843  0.0  0.06931  31.529129  -82.421625  4.511495  -14.621571  15.204055  3.358374  -0.894759  6.51164  5.953316  1.509831  1.78045  -25.14405  -14.860902  -44.05623  -1.377289  18.243188  31.962596  3.432817  1.289244  3.196877  -1.150462  -0.309791  -0.790654  -3.134329  -0.884064  -2.145994  -3.134329  -0.884064  -2.145994  -19.15269  20.505779  5.893439  104.16987  41.94793  -162.267756  -22.694981  -18.719693  75.273607  -0.407977  -3.141162  115.86206  3.07482  -10.118678  15.371905  71.109315  60.304497  10.68177  -53.078086  -5.294464  -73.625082  101.59465  -20.632748  61.613458  -10.365178  0.754342  -0.253349  -7.77346  0.570248  -0.177274  
0.0  93.25843  0.0  -0.463418  30.748719  -82.852274  3.891119  -14.625413  16.094418  4.171056  -1.36969  6.236288  5.648212  1.637263  1.800686  -24.234067  -15.224137  -43.417742  -1.18256  18.377846  32.102761  3.617131  1.263492  3.214764  -1.127935  -0.394308  -0.796662  -3.069991  -1.114546  -2.15885  -3.069992  -1.114546  -2.15885  -19.081726  20.391369  5.681612  104.827325  41.842277  -162.607185  -22.377011  -18.771475  74.914024  -0.110013  -4.838245  116.951309  3.102248  -10.030917  15.288102  72.360665  60.070029  12.115638  -52.618907  -4.669559  -73.203836  99.283321  -21.579827  62.903537  -10.095456  0.761876  -0.261511  -7.571155  0.575914  -0.183602  
0.0  93.25843  0.0  -1.341938  28.795259  -83.91594  4.373865  -14.982712  17.485158  4.56636  -1.475981  5.822212  5.832471  1.550768  2.102719  -22.315265  -15.658124  -42.055552  -0.791432  18.437151  32.091332  3.705578  1.226628  3.208674  -0.970873  -0.519935  -0.729218  -2.638218  -1.450051  -1.972294  -2.638218  -1.450051  -1.972294  -19.654255  20.246124  5.144943  106.555237  41.688287  -162.666182  -22.071761  -18.865034  74.680798  -0.099576  -6.625756  117.900528  3.466117  -9.823942  15.404134  73.728335  60.033775  13.619606  -52.295076  -4.060298  -72.718652  96.899621  -22.601042  64.097664  -9.818879  0.811544  -0.332839  -7.363597  0.614194  -0.236657  
0.0  93.25843  0.0  -2.003126  28.048121  -84.434038  3.914446  -15.598773  18.302407  4.897573  -1.35254  5.836269  6.010701  1.356406  2.454915  -21.570504  -16.265654  -40.89607  -0.311523  18.324246  31.891497  3.616951  1.291487  3.197996  -1.001135  -0.650772  -0.732774  -2.717117  -1.808619  -1.976084  -2.717117  -1.808619  -1.976084  -19.390462  20.264016  5.001026  107.275025  41.799718  -162.92706  -21.822063  -19.076197  74.584017  -0.557046  -8.549121  118.686328  3.65757  -9.581041  15.426072  75.578311  59.970008  15.391548  -51.947494  -3.45932  -72.141473  94.378251  -23.628418  65.518943  -9.326624  0.97027  -0.295482  -6.994334  0.732414  -0.206853  
